<svg id="visual" viewBox="0 0 900 600" width="900" height="600" xmlns="http://www.w3.org/2000/svg" xmlns:xlink="http://www.w3.org/1999/xlink" version="1.1"><path d="M0 67L12.5 66C25 65 50 63 75 59C100 55 125 49 150 46C175 43 200 43 225 46C250 49 275 55 300 59C325 63 350 65 375 62C400 59 425 51 450 47C475 43 500 43 525 45C550 47 575 51 600 55C625 59 650 63 675 63C700 63 725 59 750 56C775 53 800 51 825 48C850 45 875 41 887.5 39L900 37L900 0L887.5 0C875 0 850 0 825 0C800 0 775 0 750 0C725 0 700 0 675 0C650 0 625 0 600 0C575 0 550 0 525 0C500 0 475 0 450 0C425 0 400 0 375 0C350 0 325 0 300 0C275 0 250 0 225 0C200 0 175 0 150 0C125 0 100 0 75 0C50 0 25 0 12.5 0L0 0Z" fill="#f77d81"></path><path d="M0 139L12.5 145C25 151 50 163 75 163C100 163 125 151 150 139C175 127 200 115 225 113C250 111 275 119 300 132C325 145 350 163 375 163C400 163 425 145 450 136C475 127 500 127 525 134C550 141 575 155 600 163C625 171 650 173 675 167C700 161 725 147 750 148C775 149 800 165 825 157C850 149 875 117 887.5 101L900 85L900 35L887.5 37C875 39 850 43 825 46C800 49 775 51 750 54C725 57 700 61 675 61C650 61 625 57 600 53C575 49 550 45 525 43C500 41 475 41 450 45C425 49 400 57 375 60C350 63 325 61 300 57C275 53 250 47 225 44C200 41 175 41 150 44C125 47 100 53 75 57C50 61 25 63 12.5 64L0 65Z" fill="#f2696d"></path><path d="M0 181L12.5 186C25 191 50 201 75 203C100 205 125 199 150 191C175 183 200 173 225 171C250 169 275 175 300 187C325 199 350 217 375 221C400 225 425 215 450 205C475 195 500 185 525 189C550 193 575 211 600 224C625 237 650 245 675 240C700 235 725 217 750 215C775 213 800 227 825 221C850 215 875 189 887.5 176L900 163L900 83L887.5 99C875 115 850 147 825 155C800 163 775 147 750 146C725 145 700 159 675 165C650 171 625 169 600 161C575 153 550 139 525 132C500 125 475 125 450 134C425 143 400 161 375 161C350 161 325 143 300 130C275 117 250 109 225 111C200 113 175 125 150 137C125 149 100 161 75 161C50 161 25 149 12.5 143L0 137Z" fill="#ed525a"></path><path d="M0 385L12.5 387C25 389 50 393 75 388C100 383 125 369 150 355C175 341 200 327 225 324C250 321 275 329 300 339C325 349 350 361 375 370C400 379 425 385 450 379C475 373 500 355 525 358C550 361 575 385 600 389C625 393 650 377 675 368C700 359 725 357 750 364C775 371 800 387 825 371C850 355 875 307 887.5 283L900 259L900 161L887.5 174C875 187 850 213 825 219C800 225 775 211 750 213C725 215 700 233 675 238C650 243 625 235 600 222C575 209 550 191 525 187C500 183 475 193 450 203C425 213 400 223 375 219C350 215 325 197 300 185C275 173 250 167 225 169C200 171 175 181 150 189C125 197 100 203 75 201C50 199 25 189 12.5 184L0 179Z" fill="#e63946"></path><path d="M0 487L12.5 491C25 495 50 503 75 505C100 507 125 503 150 497C175 491 200 483 225 483C250 483 275 491 300 497C325 503 350 507 375 504C400 501 425 491 450 486C475 481 500 481 525 486C550 491 575 501 600 502C625 503 650 495 675 490C700 485 725 483 750 489C775 495 800 509 825 505C850 501 875 479 887.5 468L900 457L900 257L887.5 281C875 305 850 353 825 369C800 385 775 369 750 362C725 355 700 357 675 366C650 375 625 391 600 387C575 383 550 359 525 356C500 353 475 371 450 377C425 383 400 377 375 368C350 359 325 347 300 337C275 327 250 319 225 322C200 325 175 339 150 353C125 367 100 381 75 386C50 391 25 387 12.5 385L0 383Z" fill="#d23340"></path><path d="M0 535L12.5 537C25 539 50 543 75 542C100 541 125 535 150 529C175 523 200 517 225 519C250 521 275 531 300 537C325 543 350 545 375 542C400 539 425 531 450 528C475 525 500 527 525 530C550 533 575 537 600 535C625 533 650 525 675 525C700 525 725 533 750 539C775 545 800 549 825 543C850 537 875 521 887.5 513L900 505L900 455L887.5 466C875 477 850 499 825 503C800 507 775 493 750 487C725 481 700 483 675 488C650 493 625 501 600 500C575 499 550 489 525 484C500 479 475 479 450 484C425 489 400 499 375 502C350 505 325 501 300 495C275 489 250 481 225 481C200 481 175 489 150 495C125 501 100 505 75 503C50 501 25 493 12.5 489L0 485Z" fill="#be2d39"></path><path d="M0 601L12.5 601C25 601 50 601 75 601C100 601 125 601 150 601C175 601 200 601 225 601C250 601 275 601 300 601C325 601 350 601 375 601C400 601 425 601 450 601C475 601 500 601 525 601C550 601 575 601 600 601C625 601 650 601 675 601C700 601 725 601 750 601C775 601 800 601 825 601C850 601 875 601 887.5 601L900 601L900 503L887.5 511C875 519 850 535 825 541C800 547 775 543 750 537C725 531 700 523 675 523C650 523 625 531 600 533C575 535 550 531 525 528C500 525 475 523 450 526C425 529 400 537 375 540C350 543 325 541 300 535C275 529 250 519 225 517C200 515 175 521 150 527C125 533 100 539 75 540C50 541 25 537 12.5 535L0 533Z" fill="#ab2733"></path></svg>